<svg width="385" height="169" viewBox="0 0 385 169" fill="none" xmlns="http://www.w3.org/2000/svg">
<g clip-path="url(#clip0_1067_8194)">
<path d="M183.97 120.613H175.215L177.481 106.193H182.013C184.622 106.193 186.682 105.506 188.193 104.133C189.772 102.828 190.734 101.009 191.077 98.6741L197.978 55.3111H191.798L193.755 42.951H225.685L223.728 55.3111H218.578L211.78 98.365C210.613 105.506 207.66 111 202.922 114.845C198.253 118.69 191.935 120.613 183.97 120.613Z" fill="white"/>
<path d="M227.812 98L229.598 86.72H234.298L239.374 54.478H234.674L236.46 43.198H273.308C279.011 43.198 283.366 44.42 286.374 46.864C289.382 49.308 290.51 52.974 289.758 57.862C289.445 59.93 288.693 61.7473 287.502 63.314C286.374 64.8807 284.839 66.1653 282.896 67.168C281.016 68.1707 278.791 68.8913 276.222 69.33L275.94 68.578C279.073 68.766 281.611 69.4553 283.554 70.646C285.559 71.8367 286.969 73.5287 287.784 75.722C288.599 77.9153 288.755 80.61 288.254 83.806C287.502 88.4433 285.215 91.984 281.392 94.428C277.632 96.8093 272.274 98 265.318 98H227.812ZM253.098 86.72H262.028C264.221 86.72 265.913 86.25 267.104 85.31C268.295 84.37 269.015 82.9913 269.266 81.174C269.517 79.7953 269.423 78.6673 268.984 77.79C268.608 76.85 267.919 76.1607 266.916 75.722C265.976 75.2207 264.723 74.97 263.156 74.97H254.978L253.098 86.72ZM256.67 63.878H264.848C266.477 63.878 267.699 63.502 268.514 62.75C269.329 61.9353 269.861 60.8387 270.112 59.46C270.425 57.7053 270.112 56.452 269.172 55.7C268.295 54.8853 267.041 54.478 265.412 54.478H258.174L256.67 63.878ZM299.336 98L301.122 86.72H305.822L310.898 54.478H306.198L307.984 43.198H336.184L334.398 54.478H329.698L324.622 86.72H338.722L340.884 73.09H352.634L348.686 98H299.336Z" fill="white"/>
<path d="M226.392 117L230.102 106.92H231.67L228.184 117H226.392ZM233.994 117L230.522 106.92H232.174L235.87 117H233.994ZM228.31 113.038H233.826V114.494H228.31V113.038ZM244.486 117.14C243.124 117.14 242.092 116.753 241.392 115.978C240.692 115.203 240.342 114.093 240.342 112.646V106.92H242.162V112.912C242.162 113.836 242.368 114.527 242.778 114.984C243.189 115.432 243.763 115.656 244.5 115.656C245.238 115.656 245.812 115.432 246.222 114.984C246.633 114.527 246.838 113.841 246.838 112.926V106.92H248.658V112.66C248.658 114.097 248.304 115.203 247.594 115.978C246.894 116.753 245.858 117.14 244.486 117.14ZM257.019 117V108.362H253.673V106.92H262.185V108.362H258.839V117H257.019ZM271.304 117.14C270.576 117.14 269.904 117.014 269.288 116.762C268.672 116.51 268.136 116.151 267.678 115.684C267.23 115.217 266.88 114.667 266.628 114.032C266.386 113.388 266.264 112.683 266.264 111.918C266.264 110.901 266.479 110.009 266.908 109.244C267.338 108.469 267.93 107.867 268.686 107.438C269.452 106.999 270.32 106.78 271.29 106.78C272.28 106.78 273.152 106.999 273.908 107.438C274.674 107.867 275.271 108.469 275.7 109.244C276.13 110.019 276.344 110.915 276.344 111.932C276.344 112.697 276.218 113.397 275.966 114.032C275.724 114.667 275.374 115.217 274.916 115.684C274.468 116.151 273.936 116.51 273.32 116.762C272.704 117.014 272.032 117.14 271.304 117.14ZM271.29 115.656C271.925 115.656 272.48 115.497 272.956 115.18C273.442 114.863 273.82 114.424 274.09 113.864C274.361 113.295 274.496 112.641 274.496 111.904C274.496 111.176 274.361 110.541 274.09 110C273.829 109.449 273.456 109.025 272.97 108.726C272.494 108.418 271.934 108.264 271.29 108.264C270.656 108.264 270.096 108.418 269.61 108.726C269.134 109.025 268.766 109.445 268.504 109.986C268.243 110.527 268.112 111.167 268.112 111.904C268.112 112.651 268.243 113.304 268.504 113.864C268.775 114.424 269.148 114.863 269.624 115.18C270.11 115.497 270.665 115.656 271.29 115.656ZM288.277 117V106.92H292.799C293.536 106.92 294.166 107.046 294.689 107.298C295.221 107.55 295.627 107.905 295.907 108.362C296.196 108.819 296.341 109.361 296.341 109.986C296.341 110.602 296.196 111.143 295.907 111.61C295.617 112.077 295.211 112.441 294.689 112.702C294.166 112.954 293.536 113.08 292.799 113.08H289.691V111.652H292.715C293.293 111.652 293.737 111.503 294.045 111.204C294.362 110.905 294.521 110.499 294.521 109.986C294.521 109.482 294.362 109.085 294.045 108.796C293.737 108.507 293.293 108.362 292.715 108.362H290.097V117H288.277ZM299.91 117L303.62 106.92H305.188L301.702 117H299.91ZM307.512 117L304.04 106.92H305.692L309.388 117H307.512ZM301.828 113.038H307.344V114.494H301.828V113.038ZM314.327 117V106.92H318.583C319.301 106.92 319.927 107.041 320.459 107.284C320.991 107.527 321.397 107.867 321.677 108.306C321.966 108.745 322.111 109.258 322.111 109.846C322.111 110.425 321.966 110.933 321.677 111.372C321.397 111.811 320.991 112.151 320.459 112.394C319.927 112.637 319.301 112.758 318.583 112.758H315.755V111.372H318.527C319.115 111.372 319.563 111.237 319.871 110.966C320.188 110.695 320.347 110.322 320.347 109.846C320.347 109.37 320.193 109.006 319.885 108.754C319.577 108.493 319.124 108.362 318.527 108.362H316.147V117H314.327ZM320.095 117L315.601 111.848H317.645L322.615 117H320.095ZM330.059 117V108.362H326.713V106.92H335.225V108.362H331.879V117H330.059ZM343.779 117.126C342.509 117.126 341.497 116.837 340.741 116.258C339.994 115.67 339.555 114.844 339.425 113.78H341.175C341.259 114.396 341.534 114.877 342.001 115.222C342.467 115.558 343.079 115.726 343.835 115.726C344.46 115.726 344.936 115.614 345.263 115.39C345.599 115.157 345.767 114.835 345.767 114.424C345.767 114.06 345.664 113.766 345.459 113.542C345.253 113.318 344.908 113.136 344.423 112.996L342.603 112.45C341.679 112.17 340.997 111.801 340.559 111.344C340.129 110.887 339.915 110.313 339.915 109.622C339.915 109.043 340.064 108.539 340.363 108.11C340.661 107.681 341.081 107.349 341.623 107.116C342.173 106.883 342.813 106.766 343.541 106.766C344.661 106.766 345.552 107.041 346.215 107.592C346.887 108.133 347.269 108.871 347.363 109.804H345.613C345.51 109.244 345.277 108.833 344.913 108.572C344.549 108.301 344.059 108.166 343.443 108.166C342.901 108.166 342.472 108.273 342.155 108.488C341.837 108.703 341.679 108.997 341.679 109.37C341.679 109.678 341.772 109.939 341.959 110.154C342.155 110.369 342.514 110.555 343.037 110.714L344.885 111.274C345.809 111.545 346.481 111.913 346.901 112.38C347.321 112.847 347.531 113.439 347.531 114.158C347.531 115.11 347.199 115.843 346.537 116.356C345.883 116.869 344.964 117.126 343.779 117.126Z" fill="white"/>
<path d="M84 0.335205C61.7218 0.335205 40.3561 9.18518 24.603 24.9382C8.84997 40.6913 0 62.057 0 84.3352C0 106.613 8.84997 127.979 24.603 143.732C40.3561 159.485 61.7218 168.335 84 168.335C95.031 168.335 105.954 166.162 116.145 161.941C126.337 157.72 135.597 151.532 143.397 143.732C151.197 135.932 157.384 126.672 161.606 116.481C165.827 106.289 168 95.3662 168 84.3352C168 73.3042 165.827 62.3811 161.606 52.1898C157.384 41.9985 151.197 32.7384 143.397 24.9382C135.597 17.1381 126.337 10.9507 116.145 6.72932C105.954 2.50793 95.031 0.335205 84 0.335205ZM84 29.6458C114.166 29.6458 138.689 54.1692 138.689 84.3352C138.689 114.501 114.166 139.025 84 139.025C53.834 139.025 29.3106 114.501 29.3106 84.3352C29.3106 54.1692 53.834 29.6458 84 29.6458ZM84 36.0799C76.702 36.0799 69.789 37.6955 63.5934 40.5844C67.7208 52.3373 74.7843 67.1778 84 67.1778C93.2304 67.1778 100.059 52.2901 104.286 40.5283C98.1209 37.6748 91.2505 36.0799 84 36.0799ZM119.299 51.4072C109.392 58.9647 97.4436 70.2768 100.293 79.0475C103.146 87.8278 119.419 89.7201 131.913 90.1055C132.137 88.2132 132.255 86.2887 132.255 84.3352C132.255 71.5951 127.339 60.0245 119.299 51.4072ZM48.621 51.4941C40.6285 60.1017 35.7447 71.6376 35.7447 84.3352C35.7447 86.319 35.8662 88.2736 36.0978 90.1938C48.5488 89.8989 64.8298 87.7656 67.6761 79.0057C70.5264 70.2332 58.4969 59.1484 48.621 51.4941ZM73.7095 67.0941C73.0615 67.1124 72.4342 67.3259 71.9097 67.7068C71.2196 68.2083 70.757 68.9634 70.6237 69.806C70.4903 70.6486 70.697 71.5097 71.1984 72.1999C71.6998 72.8901 72.4548 73.3529 73.2974 73.4865C74.14 73.6201 75.0012 73.4136 75.6915 72.9123C76.0334 72.664 76.3229 72.3508 76.5437 71.9906C76.7645 71.6303 76.9122 71.2302 76.9783 70.8129C77.0444 70.3956 77.0277 69.9693 76.9291 69.5585C76.8305 69.1477 76.6519 68.7603 76.4035 68.4185C76.096 67.9953 75.6899 67.6535 75.2204 67.4228C74.751 67.192 74.2324 67.0792 73.7095 67.0941ZM94.2905 67.0941C94.2146 67.0919 94.1387 67.0924 94.0628 67.0955C93.5787 67.116 93.1054 67.2456 92.6783 67.4746C92.2512 67.7036 91.8814 68.0261 91.5965 68.4181C91.3481 68.7599 91.1694 69.1473 91.0708 69.5582C90.9721 69.9691 90.9554 70.3953 91.0215 70.8127C91.0876 71.23 91.2353 71.6303 91.4561 71.9905C91.677 72.3508 91.9666 72.664 92.3085 72.9123C92.9988 73.4136 93.8599 73.6202 94.7025 73.4867C95.5451 73.3532 96.3002 72.8904 96.8016 72.2002C97.303 71.5101 97.5097 70.649 97.3764 69.8064C97.243 68.9638 96.7804 68.2087 96.0903 67.7071C95.5658 67.3261 94.9385 67.1125 94.2905 67.0941ZM84 72.8969C80.9664 72.8969 78.057 74.102 75.9119 76.2471C73.7668 78.3922 72.5617 81.3016 72.5617 84.3352C72.5617 87.3688 73.7668 90.2782 75.9119 92.4233C78.057 94.5684 80.9664 95.7735 84 95.7735C87.0336 95.7735 89.943 94.5684 92.0881 92.4233C94.2332 90.2782 95.4383 87.3688 95.4383 84.3352C95.4383 81.3016 94.2332 78.3922 92.0881 76.2471C89.943 74.102 87.0336 72.8969 84 72.8969ZM67.4513 86.4931C67.1292 86.4978 66.8097 86.5508 66.5033 86.6504C66.1015 86.7809 65.7293 86.9893 65.408 87.2636C65.0866 87.538 64.8225 87.8729 64.6307 88.2494C64.4388 88.6258 64.323 89.0363 64.2898 89.4575C64.2566 89.8787 64.3067 90.3024 64.4373 90.7042C64.701 91.5156 65.2762 92.189 66.0363 92.5763C66.7965 92.9636 67.6793 93.0331 68.4907 92.7695C68.8926 92.639 69.2647 92.4307 69.586 92.1564C69.9073 91.882 70.1714 91.5471 70.3633 91.1707C70.5551 90.7943 70.671 90.3838 70.7042 89.9626C70.7374 89.5415 70.6873 89.1179 70.5568 88.7161C70.3445 88.0624 69.9284 87.4939 69.3696 87.0939C68.8108 86.6939 68.1385 86.4833 67.4513 86.4931ZM100.642 86.496C99.9398 86.4655 99.2466 86.666 98.6688 87.0669C98.0911 87.4678 97.6606 88.0469 97.4432 88.7157C97.3127 89.1175 97.2626 89.5411 97.2958 89.9623C97.329 90.3834 97.4449 90.7939 97.6367 91.1703C97.8286 91.5467 98.0927 91.8817 98.414 92.156C98.7353 92.4303 99.1075 92.6387 99.5093 92.7692C100.321 93.0328 101.203 92.9633 101.964 92.5761C102.724 92.1888 103.299 91.5155 103.563 90.7042C103.693 90.3024 103.743 89.8787 103.71 89.4575C103.677 89.0363 103.561 88.6258 103.369 88.2494C103.178 87.8729 102.913 87.538 102.592 87.2636C102.271 86.9893 101.899 86.7809 101.497 86.6504C101.22 86.5606 100.933 86.5086 100.642 86.496ZM67.7061 96.4019C59.9889 96.4391 49.748 102.418 41.8184 107.814C48.6203 120.028 60.5701 128.962 74.7546 131.705C78.3255 119.77 81.3388 103.603 73.8803 98.1848C72.1453 96.9241 70.0424 96.3905 67.7061 96.4019ZM100.24 96.4091C97.8875 96.4091 95.7743 96.9509 94.0393 98.2113C86.5704 103.638 89.7989 119.696 93.2929 131.696C107.479 128.938 119.425 119.986 126.214 107.757C118.348 102.315 108.007 96.4094 100.24 96.4091ZM84 98.4829C83.1468 98.4829 82.3285 98.8219 81.7252 99.4252C81.1219 100.029 80.783 100.847 80.783 101.7C80.783 102.553 81.1219 103.371 81.7252 103.975C82.3285 104.578 83.1468 104.917 84 104.917C84.8532 104.917 85.6715 104.578 86.2748 103.975C86.8781 103.371 87.217 102.553 87.217 101.7C87.217 100.847 86.8781 100.029 86.2748 99.4252C85.6715 98.8219 84.8532 98.4829 84 98.4829Z" fill="white"/>
<path d="M385 35H139.924L124 21L385 35Z" fill="white"/>
<path d="M385 128H139.924L120.5 147.5L385 128Z" fill="white"/>
<path d="M225 19H98.2494L88 5L225 19Z" fill="white" stroke="white"/>
<path d="M157 148H92.2369L87 162L157 148Z" fill="white" stroke="white"/>
</g>
<defs>
<clipPath id="clip0_1067_8194">
<rect width="385" height="169" fill="white"/>
</clipPath>
</defs>
</svg>
